<svg xmlns="http://www.w3.org/2000/svg" version="1.1" xmlns:xlink="http://www.w3.org/1999/xlink" xmlns:svgjs="http://svgjs.dev/svgjs" width="1461" height="561" preserveAspectRatio="none" viewBox="0 0 1461 561"><g mask="url(&quot;#SvgjsMask1939&quot;)" fill="none"><rect width="1461" height="561" x="0" y="0" fill="url(&quot;#SvgjsLinearGradient1940&quot;)"></rect><path d="M723.078389196432 187.70835399639364L879.6710495004775 176.7583284875786 712.1283636876169 31.115693692348117z" fill="rgba(28, 83, 142, 0.4)" class="triangle-float3"></path><path d="M648.92 257.52 a155.75 155.75 0 1 0 311.5 0 a155.75 155.75 0 1 0 -311.5 0z" fill="rgba(28, 83, 142, 0.4)" class="triangle-float1"></path><path d="M1401.6429413246537 304.98520127715005L1484.9639026450632 325.75945015814165 1474.4647953063459 190.3908837370317z" fill="rgba(28, 83, 142, 0.4)" class="triangle-float1"></path><path d="M407.9 142.57 a141.65 141.65 0 1 0 283.3 0 a141.65 141.65 0 1 0 -283.3 0z" fill="rgba(28, 83, 142, 0.4)" class="triangle-float3"></path><path d="M881.056,590.317C920.356,593.007,958.947,572.812,978.418,538.568C997.69,504.673,993.517,462.399,972.442,429.595C952.973,399.292,917.011,384.894,881.056,387.022C848.608,388.943,822.32,410.919,806.666,439.407C791.65,466.734,790.545,498.685,804.331,526.653C820.08,558.601,845.52,587.885,881.056,590.317" fill="rgba(28, 83, 142, 0.4)" class="triangle-float1"></path><path d="M375.6081140773394 14.990643496312174L271.7168485226486 115.31727244297792 372.0434774693143 219.2085379976687 475.9347430240051 118.88190905100296z" fill="rgba(28, 83, 142, 0.4)" class="triangle-float3"></path><path d="M40.318661120128226 108.80611586557039L136.62087396751912 145.7730718720092 143.9202015534819-17.163725402296507z" fill="rgba(28, 83, 142, 0.4)" class="triangle-float1"></path><path d="M879.482,573.737C926.655,574.252,958.703,531.302,981.652,490.084C1003.798,450.307,1017.507,403.924,996.52,363.523C974.05,320.266,928.224,293.972,879.482,293.396C829.728,292.808,780.012,316.301,757.554,360.701C736.695,401.94,758.147,447.786,781.103,487.895C804.274,528.38,832.838,573.228,879.482,573.737" fill="rgba(28, 83, 142, 0.4)" class="triangle-float2"></path><path d="M652.2715732462468 305.2822890288149L535.8382007510279 248.4939388662686 479.0498505884816 364.92731136148745 595.4832230837005 421.7156615240338z" fill="rgba(28, 83, 142, 0.4)" class="triangle-float3"></path><path d="M415.418,125.325C434.119,125.471,454.762,121.947,463.925,105.643C472.97,89.55,464.895,70.375,455.093,54.731C446.042,40.285,432.465,28.109,415.418,28.221C398.53,28.332,385.49,40.866,376.635,55.246C367.201,70.567,359.494,89.153,368.206,104.895C377.105,120.976,397.04,125.181,415.418,125.325" fill="rgba(28, 83, 142, 0.4)" class="triangle-float1"></path><path d="M764.8917179290395-23.87464238411522L651.5449885829076 81.82289269551514 757.242523662538 195.169622041647 870.5892530086699 89.47208696201662z" fill="rgba(28, 83, 142, 0.4)" class="triangle-float1"></path><path d="M600.9220696666994 580.0111092844598L545.5075565331449 466.39452012748666 487.3054805097262 635.4256224180143z" fill="rgba(28, 83, 142, 0.4)" class="triangle-float1"></path><path d="M1069.1383252186292 563.2126447681601L1044.4503741958588 407.33905660391986 888.5767860316186 432.02700762669036 913.264737054389 587.9005957909305z" fill="rgba(28, 83, 142, 0.4)" class="triangle-float3"></path><path d="M613.5143361621954 357.24818505767405L528.9163448673141 346.86085784326434 518.5290176529044 431.4588491381456 603.1270089477856 441.84617635255535z" fill="rgba(28, 83, 142, 0.4)" class="triangle-float2"></path><path d="M560.2311078572353 224.96714761839817L642.3653274863811 323.04056316293673 682.4399197108723 218.64268118685135z" fill="rgba(28, 83, 142, 0.4)" class="triangle-float1"></path><path d="M25.521563855863313 385.94234125413317L124.6636626469194 335.54587532308494 44.064528816613446 281.18107310442105z" fill="rgba(28, 83, 142, 0.4)" class="triangle-float1"></path><path d="M897.6870212133965 512.8619755083309L1017.2955712577552 454.52498778058646 958.9585835300107 334.91643773622775 839.350033485652 393.25342546397223z" fill="rgba(28, 83, 142, 0.4)" class="triangle-float1"></path><path d="M859.3919749139692 396.7516073037189L879.1748843548355 457.63714200730215 960.6117316897771 397.520010494211z" fill="rgba(28, 83, 142, 0.4)" class="triangle-float2"></path><path d="M865.4,399.646C902.082,397.302,932.638,374.013,950.568,341.926C968.017,310.699,969.673,273.791,953.576,241.846C935.582,206.136,905.244,176.285,865.4,172.909C819.412,169.012,770.251,184.528,746.892,224.333C723.313,264.513,732.944,315.569,759.034,354.165C782.18,388.405,824.155,402.281,865.4,399.646" fill="rgba(28, 83, 142, 0.4)" class="triangle-float3"></path><path d="M856.65 41.07 a101.7 101.7 0 1 0 203.4 0 a101.7 101.7 0 1 0 -203.4 0z" fill="rgba(28, 83, 142, 0.4)" class="triangle-float2"></path></g><defs><mask id="SvgjsMask1939"><rect width="1461" height="561" fill="#ffffff"></rect></mask><linearGradient x1="84.6%" y1="140.11%" x2="15.4%" y2="-40.11%" gradientUnits="userSpaceOnUse" id="SvgjsLinearGradient1940"><stop stop-color="#0e2a47" offset="0"></stop><stop stop-color="rgba(158, 0, 112, 0.98)" offset="0.9"></stop></linearGradient><style>
                @keyframes float1 {
                    0%{transform: translate(0, 0)}
                    50%{transform: translate(-10px, 0)}
                    100%{transform: translate(0, 0)}
                }

                .triangle-float1 {
                    animation: float1 5s infinite;
                }

                @keyframes float2 {
                    0%{transform: translate(0, 0)}
                    50%{transform: translate(-5px, -5px)}
                    100%{transform: translate(0, 0)}
                }

                .triangle-float2 {
                    animation: float2 4s infinite;
                }

                @keyframes float3 {
                    0%{transform: translate(0, 0)}
                    50%{transform: translate(0, -10px)}
                    100%{transform: translate(0, 0)}
                }

                .triangle-float3 {
                    animation: float3 6s infinite;
                }
            </style></defs></svg>